<svg width="48" height="48" viewBox="0 0 48 48" fill="none" xmlns="http://www.w3.org/2000/svg">
<path fill-rule="evenodd" clip-rule="evenodd" d="M24.4269 0C10.9195 0 0 11 0 24.6084C0 35.4864 6.99647 44.6943 16.7024 47.9533C17.9159 48.1983 18.3604 47.4238 18.3604 46.7723C18.3604 46.2018 18.3204 44.2463 18.3204 42.2088C11.5255 43.6758 10.1105 39.2753 10.1105 39.2753C9.01846 36.4234 7.40047 35.6904 7.40047 35.6904C5.17648 34.1829 7.56247 34.1829 7.56247 34.1829C10.0295 34.3459 11.324 36.7088 11.324 36.7088C13.5074 40.4568 17.0259 39.3978 18.4414 38.7458C18.6434 37.1568 19.2909 36.0569 19.9784 35.4459C14.5589 34.8754 8.85696 32.7569 8.85696 23.3044C8.85696 20.6154 9.82696 18.4154 11.364 16.7044C11.1215 16.0934 10.272 13.5669 11.607 10.1855C11.607 10.1855 13.6694 9.53346 18.3199 12.7114C20.311 12.1728 22.3643 11.8988 24.4269 11.8965C26.4894 11.8965 28.5919 12.182 30.5334 12.7114C35.1844 9.53346 37.2468 10.1855 37.2468 10.1855C38.5818 13.5669 37.7318 16.0934 37.4893 16.7044C39.0668 18.4154 39.9968 20.6154 39.9968 23.3044C39.9968 32.7569 34.2949 34.8344 28.8349 35.4459C29.7249 36.2199 30.4929 37.6863 30.4929 40.0088C30.4929 43.3088 30.4529 45.9573 30.4529 46.7718C30.4529 47.4238 30.8979 48.1983 32.1109 47.9538C41.8168 44.6938 48.8133 35.4864 48.8133 24.6084C48.8533 11 37.8938 0 24.4269 0Z" fill="#24292F"/>
</svg>
